:version 1.10
:name ASF
:units
  mass 1
  length 1
  angle deg
:documentation
  ASF file generated by Kaydara
:root
  axis xyz
  order  tx ty tz rx ry rz
  position 0 0 0
  orientation 0 0 0
:bonedata
  begin
    id 1
    name RightUpLegDummy
    direction -0.65628 -0.754516 0.00165102
    length 4.76918
    axis 0 0 0 xyz
  end
  begin
    id 2
    name RightUpLeg
    direction -0.145584 -0.923362 0.355256
    length 17.9961
    axis -24.7611 -13.1006 1.78531 xyz
    dof rx ry rz
  end
  begin
    id 3
    name RightLeg
    direction 0.263379 0.172355 -0.949171
    length 13.3386
    axis 89.6202 -21.1929 12.3855 xyz
    dof rx ry rz
  end
  begin
    id 4
    name RightFoot
    direction 0.224283 -0.968777 -0.105675
    length 5.86697
    axis 56.995 -39.6905 17.3365 xyz
    dof rx ry rz
  end
  begin
    id 5
    name RightToes
    direction -0.0806345 -0.9037 0.420506
    length 4.75197
    axis 146.825 -39.7828 17.6019 xyz
    dof rx ry rz
  end
  begin
    id 6
    name SpineDummy
    direction -3.39852e-014 1 9.33296e-014
    length 8.13779
    axis 0 0 0 xyz
  end
  begin
    id 7
    name Spine
    direction -0.156609 0.733703 0.661176
    length 7.14978
    axis 41.2365 5.68757 17.0844 xyz
    dof rx ry rz
  end
  begin
    id 8
    name Spine1
    direction 0 0 0
    length 0
    axis 42.8809 47.8308 -3.36039 xyz
    dof rx ry rz
  end
  begin
    id 9
    name HEadDummy
    direction 0.546431 0.701947 0.456819
    length 3.55512
    axis 42.8809 47.8308 -3.36039 xyz
  end
  begin
    id 10
    name HEad
    direction 0.23444 0.828559 0.508457
    length 7.35827
    axis 51.1864 49.2662 27.4903 xyz
    dof rx ry rz
  end
  begin
    id 11
    name LeftShoulder1Dummy
    direction 0.431183 0.475873 -0.766568
    length 2.49352
    axis 42.8809 47.8308 -3.36039 xyz
  end
  begin
    id 12
    name LeftShoulder1
    direction 0.268187 -0.383402 -0.883786
    length 4.48604
    axis -119.517 0.106469 35.1736 xyz
    dof rx ry rz
  end
  begin
    id 13
    name LeftArm
    direction 0.380567 -0.703221 -0.600541
    length 10.1142
    axis -5.41825 36.2925 7.8293 xyz
    dof rx ry rz
  end
  begin
    id 14
    name LeftForeArm
    direction 0.541071 -0.732356 -0.413396
    length 9.39839
    axis 4.65387 33.7604 7.81644 xyz
    dof rx ry rz
  end
  begin
    id 15
    name LeftHand
    direction 0.847511 -0.389379 -0.360707
    length 3.66142
    axis 7.65593 21.1436 -24.6758 xyz
    dof rx ry rz
  end
  begin
    id 16
    name RightShoulderDummy
    direction -0.692546 0.541855 0.476208
    length 2.49352
    axis 42.8809 47.8308 -3.36039 xyz
  end
  begin
    id 17
    name RightShoulder
    direction -0.870808 -0.316653 0.376065
    length 4.48602
    axis 141.571 51.133 -100.254 xyz
    dof rx ry rz
  end
  begin
    id 18
    name RightArm
    direction 0.366897 -0.87275 0.322015
    length 10.1142
    axis 92.3258 71.2036 138.917 xyz
    dof rx ry rz
  end
  begin
    id 19
    name RightForeArm
    direction 0.702487 -0.694568 0.155197
    length 9.39835
    axis 153.863 41.5092 -176.604 xyz
    dof rx ry rz
  end
  begin
    id 20
    name RightHand
    direction 0.79502 -0.601276 0.0800636
    length 3.66142
    axis 154.247 4.59222 142.9 xyz
    dof rx ry rz
  end
  begin
    id 21
    name LeftUpLegDummy
    direction 0.65628 -0.754516 0.00165102
    length 4.76919
    axis 0 0 0 xyz
  end
  begin
    id 22
    name LeftUpLeg
    direction -0.1277 -0.689368 0.713067
    length 17.9961
    axis -48.3385 -17.8675 0.791927 xyz
    dof rx ry rz
  end
  begin
    id 23
    name LeftLeg
    direction 0.109849 -0.991246 -0.0732378
    length 13.3386
    axis -2.05791 -7.30784 1.72042 xyz
    dof rx ry rz
  end
  begin
    id 24
    name LeftFoot
    direction 0.0448355 -0.272614 0.961078
    length 5.86697
    axis -18.7733 -7.89606 10.2113 xyz
    dof rx ry rz
  end
  begin
    id 25
    name LeftToes
    direction -0.18506 0.293668 0.937823
    length 4.75197
    axis 71.2267 -7.89606 10.2113 xyz
    dof rx ry rz
  end
:hierarchy
  begin
    root RightUpLegDummy SpineDummy LeftUpLegDummy
    RightUpLegDummy RightUpLeg
    RightUpLeg RightLeg
    RightLeg RightFoot
    RightFoot RightToes
    SpineDummy Spine
    Spine Spine1
    Spine1 HEadDummy LeftShoulder1Dummy RightShoulderDummy
    HEadDummy HEad
    LeftShoulder1Dummy LeftShoulder1
    LeftShoulder1 LeftArm
    LeftArm LeftForeArm
    LeftForeArm LeftHand
    RightShoulderDummy RightShoulder
    RightShoulder RightArm
    RightArm RightForeArm
    RightForeArm RightHand
    LeftUpLegDummy LeftUpLeg
    LeftUpLeg LeftLeg
    LeftLeg LeftFoot
    LeftFoot LeftToes
  end

:SAMPLES-PER-SECOND 30
:FULLY-SPECIFIED
:DEGREES
274
root  15.1391 40.8301 18.804 -171.126 -47.1004 177.191
RightUpLeg  16.9069 18.4536 -7.42688
RightLeg  -85.1198 -14.7331 8.37807
RightFoot  38.6728 10.5954 -24.7883
RightToes  -1.27222e-014 -6.36111e-015 6.36111e-015
Spine  -34.416 -9.56084 -9.64623
Spine1  0.817931 -8.30632 24.7291
HEad  -16.3511 -60.3139 4.00307
LeftShoulder1  6.36111e-015 -1.33558e-015 6.49777e-015
LeftArm  48.6041 12.5182 -36.2551
LeftForeArm  -0.918126 -27.9303 -0.500007
LeftHand  -2.08899 -3.90451 -12.7305
RightShoulder  -4.77083e-015 -6.36111e-015 -3.18055e-015
RightArm  35.5183 -19.2147 22.8757
RightForeArm  -28.9744 18.569 -31.7381
RightHand  -1.59435 7.28204 5.12706
LeftUpLeg  35.4075 14.2751 29.4711
LeftLeg  -21.0844 -11.4381 -0.420404
LeftFoot  11.649 7.25316 -17.6571
LeftToes  1.27222e-014 1.09105e-011 6.96064e-012
275
root  16.4567 40.6332 18.0378 -171.207 -44.5512 176.257
RightUpLeg  14.0509 17.774 -8.60952
RightLeg  -89.2252 -14.8476 13.4525
RightFoot  37.51 10.5894 -24.7855
RightToes  -1.27222e-014 -6.36111e-015 6.36111e-015
Spine  -33.5573 -10.8385 -10.0862
Spine1  -1.09191 -8.9125 28.0093
HEad  -18.0803 -56.8777 4.80318
LeftShoulder1  6.36111e-015 -1.33558e-015 6.49777e-015
LeftArm  47.5359 11.07 -31.1533
LeftForeArm  -4.32646 -32.7243 1.44699
LeftHand  -1.59214 -2.41839 -11.0296
RightShoulder  -4.77083e-015 -6.36111e-015 -3.18055e-015
RightArm  40.8659 -24.0287 17.7482
RightForeArm  -29.5454 18.115 -31.6681
RightHand  -1.59046 7.25217 5.12738
LeftUpLeg  37.3414 10.966 24.2476
LeftLeg  -20.2469 -17.8547 1.32403
LeftFoot  7.7265 9.02214 -24.1014
LeftToes  1.27222e-014 1.09105e-011 6.96064e-012
276
root  17.8137 39.9671 17.2744 -170.64 -41.9354 175.641
RightUpLeg  9.45361 15.6528 -9.71961
RightLeg  -91.1809 -15.4343 19.0548
RightFoot  35.8268 10.8322 -25.0789
RightToes  -1.27222e-014 -6.36111e-015 6.36111e-015
Spine  -34.4411 -11.8328 -10.4754
Spine1  -0.650733 -9.25342 29.954
HEad  -19.5476 -53.8407 5.00712
LeftShoulder1  6.36111e-015 -1.33558e-015 6.49777e-015
LeftArm  45.4288 8.96626 -25.6136
LeftForeArm  -8.93277 -37.3979 4.37677
LeftHand  -1.20154 -1.4399 -9.34322
RightShoulder  -4.77083e-015 -6.36111e-015 -3.18055e-015
RightArm  47.0269 -28.6074 8.56867
RightForeArm  -30.0762 17.2583 -31.1757
RightHand  -1.52376 7.06944 4.46869
LeftUpLeg  37.698 9.02557 19.8507
LeftLeg  -18.0456 -21.8367 1.77698
LeftFoot  5.708 9.04365 -25.4664
LeftToes  1.27222e-014 1.09105e-011 6.96064e-012
277
root  19.1707 38.8387 16.397 -171.242 -38.8761 175.567
RightUpLeg  5.8811 12.8245 -9.95605
RightLeg  -89.4435 -16.8764 21.2998
RightFoot  32.8163 8.71166 -22.4637
RightToes  -1.27222e-014 -6.36111e-015 6.36111e-015
Spine  -35.5839 -12.8631 -11.4195
Spine1  1.38463 -9.42193 31.392
HEad  -20.1233 -51.3124 3.87909
LeftShoulder1  6.36111e-015 -1.33558e-015 6.49777e-015
LeftArm  41.8933 6.98848 -19.9003
LeftForeArm  -14.735 -41.3732 8.23146
LeftHand  -1.10264 -1.36638 -8.20497
RightShoulder  -4.77083e-015 -6.36111e-015 -3.18055e-015
RightArm  55.4859 -30.9121 -3.32667
RightForeArm  -32.8329 16.538 -32.1355
RightHand  -1.52949 7.25988 4.14755
LeftUpLeg  40.0192 8.41418 17.8351
LeftLeg  -16.6263 -19.0967 0.928931
LeftFoot  0.587733 6.51125 -21.3694
LeftToes  1.27222e-014 1.09105e-011 6.96064e-012
278
root  20.499 37.4668 15.3991 -174.396 -36.587 176.215
RightUpLeg  6.45676 10.8866 -8.78878
RightLeg  -84.0018 -19.1488 20.0899
RightFoot  25.3344 3.53983 -14.8727
RightToes  -1.27222e-014 -6.36111e-015 6.36111e-015
Spine  -35.1502 -13.35 -11.9465
Spine1  2.93295 -9.41773 34.9571
HEad  -20.067 -49.0513 2.04749
LeftShoulder1  6.36111e-015 -1.33558e-015 6.49777e-015
LeftArm  37.509 5.20457 -14.4248
LeftForeArm  -22.8576 -44.4371 13.3806
LeftHand  -1.20744 -1.76842 -7.88495
RightShoulder  -4.77083e-015 -6.36111e-015 -3.18055e-015
RightArm  65.1385 -29.3852 -13.8997
RightForeArm  -39.3359 15.3467 -34.7051
RightHand  -1.70293 8.24556 4.79847
LeftUpLeg  44.8013 6.05174 17.0658
LeftLeg  -15.5486 -11.9557 -0.45106
LeftFoot  -7.82758 4.81429 -21.2175
LeftToes  1.27222e-014 1.09105e-011 6.96064e-012
279
root  21.9457 36.2766 14.2897 -178.503 -35.9459 178.289
RightUpLeg  9.90906 9.08346 -5.45041
RightLeg  -77.7994 -20.8585 17.4258
RightFoot  13.7706 -0.0149931 -6.35346
RightToes  -1.27222e-014 -6.36111e-015 6.36111e-015
Spine  -34.0378 -13.6041 -11.5276
Spine1  3.22463 -9.71744 40.2769
HEad  -19.2012 -46.977 0.336907
LeftShoulder1  6.36111e-015 -1.33558e-015 6.49777e-015
LeftArm  33.5463 3.43943 -9.40497
LeftForeArm  -34.752 -46.7116 20.7092
LeftHand  -1.48862 -2.5595 -8.4546
RightShoulder  -4.77083e-015 -6.36111e-015 -3.18055e-015
RightArm  73.4178 -26.3931 -21.1683
RightForeArm  -48.1702 13.7029 -37.713
RightHand  -1.98586 9.83927 6.49982
LeftUpLeg  45.9432 -0.0016164 17.1176
LeftLeg  -8.06185 -6.87743 -1.12138
LeftFoot  -11.476 5.32885 -27.36
LeftToes  1.27222e-014 1.09105e-011 6.96064e-012
